<?xml version="1.0" encoding="UTF-8" standalone="no"?>
<!DOCTYPE svg PUBLIC "-//W3C//DTD SVG 1.1//EN" "http://www.w3.org/Graphics/SVG/1.1/DTD/svg11.dtd">
<svg width="100%" height="100%" viewBox="0 0 1024 1024" version="1.1" xmlns="http://www.w3.org/2000/svg" xmlns:xlink="http://www.w3.org/1999/xlink" xml:space="preserve" xmlns:serif="http://www.serif.com/" style="fill-rule:evenodd;clip-rule:evenodd;stroke-linecap:round;stroke-linejoin:round;stroke-miterlimit:1.5;">
    <path d="M1024,0L1024,1024L0,1024L0,0L1024,0ZM51.2,51.2L51.2,972.8L972.8,972.8L972.8,51.2L51.2,51.2Z" style="fill:rgb(255,0,0);stroke:black;stroke-width:1px;"/>
    <g transform="matrix(36.671742,0,0,36.671742,-5732.304026,-6355.732296)">
        <g transform="matrix(11.998339,0,0,11.998339,170.896366,198.460296)">
            <path d="M0.851,-0.757L0.149,-0.757L0.149,-0.205L0.238,-0.205L0.238,-0.684L0.759,-0.684L0.759,-0.205L0.851,-0.205L0.851,-0.757ZM0.945,-0.245L0.054,-0.245L0.054,-0.164L0.945,-0.164L0.945,-0.245ZM0.714,-0.524L0.279,-0.524L0.279,-0.462L0.714,-0.462L0.714,-0.524ZM0.539,-0.305L0.44,-0.305C0.417,-0.134 0.362,-0.037 0.033,0.005C0.049,0.024 0.07,0.061 0.077,0.084C0.436,0.031 0.51,-0.093 0.539,-0.305ZM0.566,-0.215L0.479,-0.202C0.548,-0.023 0.676,0.058 0.911,0.086C0.923,0.059 0.948,0.018 0.969,-0.003C0.751,-0.02 0.622,-0.081 0.566,-0.215ZM0.533,-0.66L0.46,-0.66L0.46,-0.32L0.533,-0.32L0.533,-0.66ZM0.696,-0.625L0.63,-0.654C0.616,-0.624 0.588,-0.578 0.567,-0.549L0.618,-0.525C0.641,-0.551 0.669,-0.588 0.696,-0.625ZM0.356,-0.65L0.301,-0.623C0.327,-0.593 0.353,-0.551 0.361,-0.522L0.42,-0.552C0.41,-0.582 0.383,-0.622 0.356,-0.65ZM0.536,-0.481L0.493,-0.441C0.554,-0.404 0.631,-0.349 0.668,-0.312L0.713,-0.358C0.673,-0.394 0.596,-0.447 0.536,-0.481ZM0.563,-0.835L0.46,-0.845C0.451,-0.811 0.433,-0.762 0.418,-0.728L0.513,-0.718C0.527,-0.747 0.543,-0.789 0.563,-0.835ZM0.494,-0.481L0.437,-0.503C0.399,-0.444 0.324,-0.381 0.256,-0.351C0.272,-0.339 0.294,-0.314 0.305,-0.298C0.375,-0.335 0.452,-0.411 0.494,-0.481Z" style="fill:rgb(255,0,0);fill-rule:nonzero;"/>
        </g>
        <g transform="matrix(11.998339,0,0,11.998339,182.894705,198.460296)">
        </g>
    </g>
    <g transform="matrix(1,0,0,1,74.121562,461.314687)">
        <g transform="matrix(440,0,0,440,0,0)">
            <path d="M0.785,-0.83L0.719,-0.779C0.775,-0.736 0.84,-0.671 0.866,-0.628L0.937,-0.684C0.907,-0.728 0.841,-0.789 0.785,-0.83ZM0.956,-0.578L0.045,-0.578L0.045,-0.493L0.956,-0.493L0.956,-0.578ZM0.525,-0.751L0.088,-0.751L0.088,-0.67L0.525,-0.67L0.525,-0.751ZM0.548,-0.402L0.062,-0.402L0.062,-0.322L0.548,-0.322L0.548,-0.402ZM0.352,-0.844L0.262,-0.844L0.262,-0.53L0.352,-0.53L0.352,-0.844ZM0.352,-0.484L0.262,-0.484L0.262,-0.354L0.352,-0.354L0.352,-0.484ZM0.345,-0.28L0.287,-0.229C0.354,-0.174 0.439,-0.096 0.479,-0.047L0.54,-0.106C0.498,-0.154 0.411,-0.228 0.345,-0.28ZM0.549,-0.265L0.479,-0.308C0.455,-0.276 0.412,-0.229 0.381,-0.201L0.441,-0.162C0.473,-0.188 0.515,-0.227 0.549,-0.265ZM0.348,-0.342L0.266,-0.37C0.214,-0.291 0.122,-0.218 0.031,-0.173C0.049,-0.157 0.079,-0.123 0.091,-0.105C0.185,-0.16 0.286,-0.248 0.348,-0.342ZM0.095,-0.011L0.131,0.065C0.207,0.04 0.303,0.006 0.392,-0.026L0.378,-0.101C0.274,-0.067 0.168,-0.032 0.095,-0.011ZM0.247,-0.262L0.162,-0.216L0.162,-0.006L0.247,-0.006L0.247,-0.262ZM0.667,-0.843L0.572,-0.843C0.574,-0.357 0.639,0.084 0.845,0.084C0.925,0.084 0.955,0.041 0.97,-0.119C0.947,-0.128 0.914,-0.148 0.894,-0.168C0.888,-0.052 0.878,-0.008 0.853,-0.008C0.737,-0.008 0.661,-0.389 0.667,-0.843ZM0.912,-0.419L0.826,-0.449C0.749,-0.252 0.607,-0.085 0.431,0.01C0.455,0.029 0.483,0.061 0.498,0.085C0.681,-0.026 0.826,-0.203 0.912,-0.419Z" style="fill:rgb(255,0,0);fill-rule:nonzero;"/>
        </g>
    </g>
    <g transform="matrix(1,0,0,1,535.698438,460.304516)">
        <g transform="matrix(440,0,0,440,0,0)">
            <path d="M0.569,-0.033L0.569,-0.639L0.472,-0.639L0.472,-0.035C0.472,-0.018 0.466,-0.014 0.448,-0.013C0.43,-0.013 0.371,-0.012 0.31,-0.014C0.324,0.013 0.339,0.055 0.344,0.082C0.429,0.082 0.484,0.08 0.521,0.064C0.558,0.049 0.569,0.022 0.569,-0.033ZM0.882,-0.751L0.831,-0.836C0.67,-0.797 0.395,-0.778 0.163,-0.773C0.173,-0.75 0.184,-0.713 0.186,-0.688C0.417,-0.69 0.698,-0.708 0.882,-0.751ZM0.319,-0.249L0.228,-0.28C0.18,-0.193 0.104,-0.098 0.034,-0.037C0.056,-0.023 0.095,0.006 0.113,0.023C0.18,-0.046 0.263,-0.153 0.319,-0.249ZM0.769,-0.279L0.686,-0.243C0.755,-0.162 0.838,-0.049 0.875,0.02L0.964,-0.023C0.924,-0.093 0.837,-0.2 0.769,-0.279ZM0.128,-0.34C0.128,-0.36 0.203,-0.396 0.203,-0.396L0.203,-0.397C0.229,-0.492 0.257,-0.632 0.261,-0.754L0.163,-0.773C0.163,-0.656 0.138,-0.526 0.13,-0.492C0.121,-0.456 0.111,-0.433 0.096,-0.428C0.107,-0.404 0.123,-0.36 0.128,-0.34ZM0.128,-0.415L0.128,-0.34C0.138,-0.349 0.186,-0.354 0.25,-0.354L0.925,-0.354L0.926,-0.449L0.189,-0.449L0.128,-0.415Z" style="fill:rgb(255,0,0);fill-rule:nonzero;"/>
        </g>
    </g>
    <g transform="matrix(1,0,0,1,75.750937,924.290625)">
        <g transform="matrix(440,0,0,440,0,0)">
            <path d="M0.772,-0.467L0.686,-0.467L0.686,-0.043L0.772,-0.043L0.772,-0.467ZM0.919,-0.416L0.529,-0.416L0.529,-0.352L0.919,-0.352L0.919,-0.416ZM0.86,-0.769L0.646,-0.769L0.646,-0.702L0.86,-0.702L0.86,-0.769ZM0.933,-0.19L0.514,-0.19L0.514,-0.124L0.933,-0.124L0.933,-0.19ZM0.892,-0.305L0.548,-0.305L0.548,-0.243L0.892,-0.243L0.892,-0.305ZM0.744,-0.826L0.669,-0.849C0.633,-0.772 0.567,-0.704 0.495,-0.659C0.51,-0.644 0.536,-0.61 0.546,-0.594C0.623,-0.648 0.7,-0.734 0.744,-0.826ZM0.852,-0.769L0.835,-0.769L0.835,-0.757C0.783,-0.623 0.642,-0.535 0.49,-0.5C0.505,-0.483 0.525,-0.452 0.534,-0.432C0.704,-0.48 0.855,-0.576 0.92,-0.749L0.867,-0.772L0.852,-0.769ZM0.645,-0.701L0.582,-0.68C0.649,-0.567 0.771,-0.476 0.913,-0.437C0.924,-0.459 0.946,-0.49 0.963,-0.506C0.827,-0.534 0.704,-0.61 0.645,-0.701ZM0.412,-0.809L0.341,-0.784C0.367,-0.717 0.397,-0.626 0.411,-0.573L0.486,-0.604C0.471,-0.655 0.438,-0.743 0.412,-0.809ZM0.485,-0.077L0.485,-0.491L0.323,-0.491L0.323,-0.412L0.405,-0.412L0.405,-0.077L0.485,-0.077ZM0.448,-0.108C0.405,-0.108 0.35,-0.061 0.298,0.001L0.349,0.08C0.383,0.024 0.422,-0.032 0.447,-0.032C0.465,-0.032 0.491,-0.005 0.524,0.018C0.576,0.054 0.636,0.068 0.721,0.068C0.783,0.068 0.891,0.064 0.945,0.06C0.946,0.037 0.956,-0.006 0.964,-0.029C0.896,-0.019 0.789,-0.014 0.723,-0.014C0.645,-0.014 0.584,-0.023 0.537,-0.056C0.497,-0.083 0.476,-0.108 0.448,-0.108ZM0.067,-0.178C0.067,-0.196 0.126,-0.223 0.126,-0.223L0.126,-0.225C0.21,-0.322 0.294,-0.458 0.357,-0.589L0.281,-0.632C0.226,-0.5 0.137,-0.36 0.108,-0.324C0.081,-0.287 0.061,-0.263 0.039,-0.258C0.049,-0.236 0.063,-0.195 0.067,-0.178ZM0.062,-0.251L0.067,-0.178C0.088,-0.191 0.122,-0.201 0.34,-0.243C0.339,-0.262 0.339,-0.296 0.342,-0.32L0.104,-0.279L0.062,-0.251ZM0.06,-0.417C0.06,-0.434 0.113,-0.464 0.113,-0.464L0.113,-0.467C0.174,-0.558 0.237,-0.688 0.277,-0.808L0.187,-0.846C0.158,-0.727 0.1,-0.598 0.081,-0.565C0.063,-0.531 0.047,-0.508 0.03,-0.503C0.04,-0.479 0.055,-0.435 0.06,-0.417ZM0.058,-0.483L0.06,-0.417C0.078,-0.425 0.107,-0.432 0.258,-0.449C0.259,-0.468 0.262,-0.501 0.266,-0.524L0.099,-0.509L0.058,-0.483ZM0.039,-0.064L0.061,0.026C0.145,-0.004 0.252,-0.042 0.355,-0.079L0.339,-0.153C0.227,-0.118 0.114,-0.084 0.039,-0.064Z" style="fill:rgb(255,0,0);fill-rule:nonzero;"/>
        </g>
    </g>
</svg>
